<svg id="vector" xmlns="http://www.w3.org/2000/svg" width="22" height="22" viewBox="0 0 22 22"><path fill="#567790" fill-rule="nonzero" d="M8.226,4.529l2.542,4.4c0.076,-0.008 0.154,-0.013 0.232,-0.013 0.854,0 1.588,0.514 1.91,1.25h5.277c0.46,0 0.834,0.374 0.834,0.834 0,0.46 -0.373,0.834 -0.834,0.834L12.91,11.834c-0.321,0.736 -1.056,1.25 -1.91,1.25 -0.079,0 -0.157,-0.005 -0.233,-0.013l-2.428,4.205c-0.154,0.267 -0.434,0.417 -0.723,0.417 -0.141,0 -0.285,-0.037 -0.416,-0.112 -0.399,-0.23 -0.535,-0.74 -0.305,-1.138L9.323,12.237c-0.256,-0.346 -0.407,-0.774 -0.407,-1.237 0,-0.463 0.151,-0.89 0.407,-1.236L6.783,5.363c-0.23,-0.4 -0.094,-0.91 0.304,-1.14 0.4,-0.23 0.908,-0.093 1.14,0.306z" id="path_0"/><path fill="#567790" fill-rule="nonzero" d="M20.25,9.506l-1.08,-0.108c-0.073,-0.374 -0.17,-0.742 -0.291,-1.097l0.88,-0.632c0.349,-0.251 0.45,-0.72 0.235,-1.094l-0.665,-1.151c-0.214,-0.373 -0.672,-0.519 -1.065,-0.343l-0.985,0.445c-0.25,-0.286 -0.519,-0.555 -0.805,-0.805l0.445,-0.985c0.176,-0.391 0.028,-0.849 -0.344,-1.064l-1.15,-0.664c-0.374,-0.216 -0.843,-0.113 -1.094,0.234l-0.632,0.88c-0.355,-0.12 -0.723,-0.218 -1.097,-0.29l-0.108,-1.08C12.45,1.321 12.095,1 11.665,1L10.336,1c-0.43,0 -0.786,0.323 -0.829,0.75L9.4,2.83c-0.374,0.073 -0.741,0.17 -1.096,0.291l-0.633,-0.88c-0.25,-0.349 -0.72,-0.45 -1.094,-0.235l-1.151,0.667c-0.372,0.214 -0.52,0.672 -0.343,1.064l0.446,0.986c-0.287,0.25 -0.555,0.518 -0.805,0.804l-0.986,-0.445c-0.39,-0.176 -0.848,-0.028 -1.063,0.344l-0.666,1.149c-0.216,0.372 -0.114,0.843 0.234,1.094l0.88,0.632c-0.12,0.355 -0.218,0.723 -0.29,1.097l-1.08,0.108C1.321,9.55 1,9.905 1,10.335v1.329c0,0.43 0.323,0.786 0.75,0.829l1.08,0.108c0.073,0.374 0.17,0.741 0.291,1.096l-0.88,0.633c-0.349,0.251 -0.45,0.72 -0.235,1.094l0.665,1.151c0.215,0.373 0.674,0.521 1.065,0.343l0.985,-0.445c0.25,0.286 0.519,0.554 0.805,0.804l-0.445,0.985c-0.176,0.392 -0.029,0.85 0.344,1.064l1.151,0.665c0.374,0.216 0.843,0.114 1.094,-0.235l0.633,-0.88c0.354,0.121 0.722,0.219 1.096,0.291l0.109,1.08c0.04,0.43 0.397,0.753 0.827,0.753h1.329c0.43,0 0.786,-0.323 0.829,-0.75l0.108,-1.08c0.374,-0.073 0.741,-0.17 1.096,-0.291l0.633,0.88c0.251,0.349 0.72,0.448 1.094,0.235l1.151,-0.665c0.373,-0.215 0.52,-0.673 0.343,-1.065l-0.445,-0.985c0.286,-0.25 0.554,-0.519 0.804,-0.805l0.985,0.445c0.392,0.176 0.85,0.028 1.064,-0.344l0.665,-1.151c0.215,-0.373 0.114,-0.843 -0.235,-1.094l-0.88,-0.633c0.121,-0.354 0.219,-0.722 0.291,-1.096l1.08,-0.109c0.43,-0.04 0.753,-0.397 0.753,-0.827L21,10.336c0,-0.431 -0.323,-0.787 -0.75,-0.83zM11,16.834c-3.216,0 -5.834,-2.617 -5.834,-5.834 0,-3.218 2.616,-5.834 5.834,-5.834 3.217,0 5.834,2.616 5.834,5.834 0,3.217 -2.618,5.834 -5.834,5.834z" id="path_1"/></svg>