<svg id="vector" xmlns="http://www.w3.org/2000/svg" width="22" height="22" viewBox="0 0 22 22"><path fill="#567790" fill-rule="nonzero" d="M18.5,7.704l-4.168,-3.897L11.569,1.224c-0.322,-0.299 -0.818,-0.299 -1.138,0L1.376,9.686C1.134,9.928 1,10.247 1,10.583c0,0.689 0.561,1.25 1.25,1.25L3.5,11.833v7.084C3.5,20.065 4.435,21 5.584,21h10.834c1.147,0 2.082,-0.935 2.082,-2.084v-7.084h1.25c0.689,0 1.25,-0.561 1.25,-1.25 0,-0.335 -0.134,-0.654 -0.399,-0.916L18.5,7.704z" id="path_0"/><path fill="#FFF" fill-rule="nonzero" d="M10.7365,11.526L10.7365,11.526A2.8945,2.8945 0,0 1,13.631 14.4205L13.631,14.4205A2.8945,2.8945 0,0 1,10.7365 17.315L10.7365,17.315A2.8945,2.8945 0,0 1,7.842 14.4205L7.842,14.4205A2.8945,2.8945 0,0 1,10.7365 11.526z" id="path_1"/></svg>