<svg id="vector" xmlns="http://www.w3.org/2000/svg" width="16" height="16" viewBox="0 0 100.35 100.35"><path fill="#231F20" d="M30.96,46.4l17.06,28.55c0.27,0.45 0.75,0.73 1.27,0.73c0,0 0.01,0 0.01,0c0.52,0 1,-0.27 1.27,-0.71l17.76,-28.55c0.04,-0.07 0.08,-0.14 0.11,-0.22c2.12,-3.47 3.24,-7.43 3.24,-11.47c0,-12.15 -9.89,-22.03 -22.04,-22.03c-12.15,0 -22.03,9.89 -22.03,22.03c0,4.04 1.12,8.01 3.24,11.47C30.89,46.28 30.92,46.34 30.96,46.4zM49.65,15.7c10.5,0 19.04,8.54 19.04,19.03c0,3.57 -1.01,7.06 -2.92,10.1c-0.05,0.07 -0.08,0.15 -0.12,0.22L49.33,71.3L33.66,45.08c-0.03,-0.09 -0.08,-0.17 -0.13,-0.25c-1.91,-3.04 -2.92,-6.53 -2.92,-10.1C30.61,24.24 39.15,15.7 49.65,15.7z" id="path_0"/><path fill="#231F20" d="M49.65,42.93c4.52,0 8.19,-3.67 8.19,-8.19s-3.67,-8.19 -8.19,-8.19s-8.19,3.67 -8.19,8.19S45.13,42.93 49.65,42.93zM49.65,29.55c2.86,0 5.19,2.33 5.19,5.19c0,2.86 -2.33,5.19 -5.19,5.19c-2.86,0 -5.19,-2.33 -5.19,-5.19C44.46,31.88 46.79,29.55 49.65,29.55z" id="path_1"/><path fill="#231F20" d="M68.6,84.3H30.71c-0.83,0 -1.5,0.67 -1.5,1.5s0.67,1.5 1.5,1.5h37.89c0.83,0 1.5,-0.67 1.5,-1.5S69.42,84.3 68.6,84.3z" id="path_2"/></svg>