<svg id="vector" xmlns="http://www.w3.org/2000/svg" width="20" height="20" viewBox="0 0 20 20"><path fill="@color/black_2" d="M16.797,15.416h-0.547L16.25,8.333c0,-3.215 -2.426,-5.861 -5.547,-6.21L10.703,1.535C10.703,1.147 10.39,0.833 10,0.833c-0.389,0 -0.703,0.314 -0.703,0.703v0.586C6.176,2.473 3.75,5.118 3.75,8.333v7.083L3.203,15.416c-0.389,0 -0.703,0.315 -0.703,0.703 0,0.39 0.314,0.704 0.703,0.704h5.39v0.937c0,0.777 0.63,1.406 1.407,1.406s1.406,-0.629 1.406,-1.406v-0.937h5.39c0.39,0 0.704,-0.315 0.704,-0.704 0,-0.388 -0.314,-0.703 -0.703,-0.703zM14.844,15.416L5.156,15.416L5.156,8.333c0,-2.676 2.168,-4.844 4.844,-4.844s4.844,2.168 4.844,4.844v7.083z" fill-rule="nonzero" id="path_0"/></svg>