<svg id="vector" xmlns="http://www.w3.org/2000/svg" width="28" height="27" viewBox="0 0 28 27"><path fill="#2486b2" fill-rule="nonzero" d="M7,7.697m-7,0a7,7 0,1 1,14 0a7,7 0,1 1,-14 0" id="path_0"/><path fill="#2486b2" fill-rule="evenodd" d="M15.946,2.697c6.627,0 12,5.373 12,12s-5.373,12 -12,12c-6.628,0 -12,-5.373 -12,-12s5.372,-12 12,-12zM16.002,7.697c-0.673,0 -1.328,0.148 -1.947,0.442 -0.597,0.282 -1.13,0.687 -1.588,1.199 -0.46,0.513 -0.822,1.11 -1.073,1.77 -0.261,0.683 -0.394,1.41 -0.394,2.163v7.34c0,0.599 0.438,1.086 0.979,1.086h8.042c0.54,0 0.979,-0.487 0.976,-1.086L21,14.732c0,-0.552 -0.422,-0.999 -0.945,-0.999L12.01,13.733v-0.465c0,-0.609 0.107,-1.202 0.321,-1.765 0.207,-0.542 0.5,-1.024 0.87,-1.435 0.366,-0.407 0.785,-0.727 1.248,-0.949h0.003l0.02,-0.008c0.482,-0.232 0.997,-0.35 1.53,-0.35 0.53,0 1.047,0.12 1.532,0.347 0.471,0.225 0.9,0.548 1.27,0.958 0.258,0.29 0.596,0.921 0.783,1.298 0.092,0.184 0.272,0.298 0.468,0.298h0.203c0.267,0 0.453,-0.286 0.352,-0.55l-0.001,-0.004c-0.255,-0.667 -0.617,-1.263 -1.073,-1.77 -0.456,-0.512 -0.99,-0.917 -1.588,-1.2C17.329,7.844 16.675,7.697 16.002,7.697zM20,14.797v5.812c0,0.01 -0.001,0.017 -0.003,0.022h-7.983c-0.002,-0.005 -0.003,-0.013 -0.003,-0.022v-5.813L20,14.796zM16.005,15.507c-0.479,0 -0.867,0.41 -0.867,0.916 0.002,0.31 0.154,0.604 0.4,0.77v1.398c0,0.273 0.21,0.495 0.468,0.495s0.468,-0.222 0.468,-0.495v-1.4c0.248,-0.169 0.397,-0.453 0.397,-0.768 0,-0.506 -0.388,-0.917 -0.866,-0.917z" id="path_1"/></svg>