<svg id="vector" xmlns="http://www.w3.org/2000/svg" width="23" height="22" viewBox="0 0 23 22"><path fill="#567790" fill-rule="nonzero" d="M10.768,2.027c0.341,0 0.618,0.276 0.618,0.617v2.884c0,0.25 -0.15,0.474 -0.382,0.57 -0.075,0.031 -0.157,0.047 -0.236,0.047 -0.16,0 -0.319,-0.063 -0.437,-0.18l-0.86,-0.86 -4.916,4.918c-0.162,0.16 -0.372,0.241 -0.583,0.241 -0.212,0 -0.422,-0.08 -0.583,-0.24 -0.32,-0.322 -0.32,-0.844 0,-1.166L8.307,3.94l-0.86,-0.86C7.272,2.906 7.218,2.64 7.315,2.409c0.095,-0.23 0.322,-0.381 0.571,-0.381h2.883z" id="path_0"/><path fill="#567790" fill-rule="nonzero" d="M7.267,13.765v4.736L2.324,18.501L2.324,13.765c0,-0.569 0.46,-1.03 1.03,-1.03h2.882c0.569,0 1.031,0.461 1.031,1.03zM13.857,10.47v8.033L8.914,18.503L8.914,10.47c0,-0.568 0.461,-1.03 1.03,-1.03h2.883c0.57,0 1.03,0.462 1.03,1.03zM20.448,7.174L20.448,18.503h-4.943L15.505,7.173c0,-0.568 0.46,-1.03 1.029,-1.03h2.884c0.569,0 1.03,0.462 1.03,1.03z" id="path_1"/><path fill="#567790" fill-rule="nonzero" d="M20.654,20.975L2.118,20.975c-0.341,0 -0.618,-0.277 -0.618,-0.618 0,-0.341 0.277,-0.618 0.618,-0.618h18.536c0.342,0 0.618,0.277 0.618,0.618 0,0.34 -0.276,0.618 -0.618,0.618z" id="path_2"/></svg>