<svg id="vector" xmlns="http://www.w3.org/2000/svg" width="22" height="22" viewBox="0 0 22 22"><path fill="#567790" fill-rule="nonzero" d="M19.778,2.028L1.755,2.028C0.787,2.028 0,2.816 0,3.784v3.062c0,1.796 1.462,3.256 3.257,3.256 0.963,0 1.82,-0.428 2.417,-1.094 0.634,0.67 1.525,1.094 2.517,1.094 1.025,0 1.939,-0.455 2.574,-1.164 0.637,0.71 1.549,1.164 2.575,1.164 0.993,0 1.884,-0.424 2.516,-1.094 0.596,0.666 1.455,1.094 2.417,1.094 1.797,0 3.257,-1.461 3.257,-3.256L21.53,3.784c0.003,-0.968 -0.785,-1.756 -1.752,-1.756zM4.72,6.846c0,0.806 -0.657,1.462 -1.463,1.462s-1.463,-0.656 -1.463,-1.462l-0.04,-3.023L4.72,3.823v3.023zM8.192,8.308c-0.925,0 -1.677,-0.752 -1.677,-1.676v-2.81L9.87,3.822v2.81c-0.001,0.924 -0.754,1.676 -1.678,1.676zM13.341,8.308c-0.925,0 -1.677,-0.752 -1.677,-1.676v-2.81h3.355v2.81c0,0.924 -0.754,1.676 -1.678,1.676zM19.739,6.846c0,0.806 -0.657,1.462 -1.463,1.462s-1.463,-0.656 -1.463,-1.462L16.813,3.813l2.926,-0.03v3.063z" id="path_0"/><path fill="#567790" fill-rule="nonzero" d="M19.739,11.682v2.01L1.794,13.692v-2.01C1.13,11.475 0.519,11.144 0,10.704v5.006c0,0.862 0.71,1.57 1.57,1.57h6.872c-0.105,0.45 -0.385,1.18 -1.132,1.927 -0.127,0.128 -0.167,0.321 -0.097,0.488 0.07,0.168 0.233,0.277 0.415,0.277h6.28c0.182,0 0.347,-0.109 0.415,-0.277 0.069,-0.168 0.031,-0.36 -0.097,-0.488 -0.745,-0.746 -1.032,-1.475 -1.144,-1.926h6.883c0.861,0 1.57,-0.71 1.57,-1.57L21.535,10.703c-0.522,0.44 -1.133,0.771 -1.796,0.978z" id="path_1"/></svg>