<svg id="vector" xmlns="http://www.w3.org/2000/svg" width="10" height="13" viewBox="0 0 10 13"><path fill="@color/yellow" d="M9.604,10.588c-0.251,-0.577 -0.613,-1.096 -1.071,-1.541 -0.459,-0.445 -0.994,-0.796 -1.59,-1.04 -0.201,-0.083 -0.41,-0.153 -0.62,-0.21 0.594,-0.194 1.138,-0.52 1.594,-0.962 0.779,-0.756 1.21,-1.762 1.21,-2.83 0,-1.07 -0.43,-2.076 -1.21,-2.832C7.137,0.417 6.1,0 4.999,0c-1.102,0 -2.14,0.416 -2.919,1.173C1.301,1.93 0.87,2.936 0.87,4.004c0,1.069 0.43,2.075 1.21,2.831 0.456,0.442 1,0.768 1.594,0.963 -0.21,0.056 -0.419,0.125 -0.62,0.209 -0.596,0.244 -1.131,0.595 -1.59,1.04 -0.458,0.445 -0.82,0.964 -1.071,1.54 -0.261,0.6 -0.393,1.234 -0.393,1.89 0,0.289 0.241,0.523 0.54,0.523 0.298,0 0.54,-0.234 0.54,-0.523 0,-1.017 0.407,-1.972 1.147,-2.69 0.74,-0.719 1.725,-1.114 2.773,-1.114s2.032,0.395 2.773,1.114c0.74,0.718 1.148,1.673 1.148,2.69 0,0.289 0.241,0.523 0.54,0.523 0.298,0 0.539,-0.234 0.539,-0.523 -0.003,-0.656 -0.135,-1.29 -0.396,-1.89zM1.948,4.004c0,-1.631 1.369,-2.957 3.049,-2.957s3.049,1.326 3.049,2.957c0,1.632 -1.367,2.958 -3.049,2.958S1.948,5.634 1.948,4.004z" fill-rule="nonzero" id="path_0"/></svg>