<?xml version="1.0" standalone="no"?>
<!DOCTYPE svg PUBLIC "-//W3C//DTD SVG 20010904//EN"
 "http://www.w3.org/TR/2001/REC-SVG-20010904/DTD/svg10.dtd">
<svg version="1.0" xmlns="http://www.w3.org/2000/svg"
 width="512.000000px" heigxt="512.000000px" viewBox="0 0 512.000000 512.000000"
 preserveAspectRatio="xMidYMid meet">

<g transform="translate(0.000000,512.000000) scale(0.100000,-0.100000)"
fill="#000000" stroke="none">
<path d="M745 4266 c-464 -266 -739 -429 -737 -438 3 -15 413 -1151 418 -1157
2 -2 551 177 632 207 9 3 12 -245 12 -1222 l0 -1226 1490 0 1490 0 0 1226 c0
977 3 1225 13 1222 80 -30 629 -209 631 -207 2 2 98 265 214 584 178 491 209
582 196 591 -8 6 -342 199 -743 428 l-729 416 -271 0 -271 0 0 -37 c0 -51 -23
-134 -56 -202 -37 -76 -151 -189 -231 -230 -215 -108 -447 -69 -619 103 -95
95 -154 221 -154 329 l0 37 -272 0 -273 -1 -740 -423z m1120 162 c46 -130 166
-279 285 -356 257 -164 563 -164 820 0 119 77 239 226 285 356 l19 52 148 0
148 0 640 -366 c352 -201 640 -371 640 -377 1 -26 -285 -797 -295 -797 -6 0
-165 52 -355 115 -190 63 -348 115 -352 115 -5 0 -8 -569 -8 -1265 l0 -1265
-1280 0 -1280 0 0 1265 c0 696 -3 1265 -8 1265 -4 0 -162 -52 -352 -115 -190
-63 -349 -115 -355 -115 -12 0 -299 783 -293 800 2 6 289 175 638 375 l635
364 151 0 150 1 19 -52z"/>
</g>
</svg>
