<?xml version="1.0" encoding="UTF-8"?> <!--Generator: Apple Native CoreSVG 175.5--> <!DOCTYPE svg PUBLIC "-//W3C//DTD SVG 1.1//EN" "http://www.w3.org/Graphics/SVG/1.1/DTD/svg11.dtd"> <svg version="1.1" xmlns="http://www.w3.org/2000/svg" xmlns:xlink="http://www.w3.org/1999/xlink" width="32.75" height="29.8594"> <g> <rect height="29.8594" opacity="0" width="32.75" x="0" y="0"/> <path d="M4.26562 29.6875L28.4844 29.6875C31.1406 29.6875 32.75 27.8438 32.75 25.4531C32.75 24.7188 32.5312 23.9531 32.1406 23.2656L20.0156 2.14062C19.2031 0.71875 17.8125 0 16.375 0C14.9375 0 13.5312 0.71875 12.7344 2.14062L0.609375 23.2656C0.1875 23.9688 0 24.7188 0 25.4531C0 27.8438 1.60938 29.6875 4.26562 29.6875ZM4.28125 27.2344C3.1875 27.2344 2.53125 26.3906 2.53125 25.4375C2.53125 25.1406 2.59375 24.7656 2.76562 24.4375L14.875 3.32812C15.2031 2.75 15.7969 2.5 16.375 2.5C16.9531 2.5 17.5312 2.75 17.8594 3.32812L29.9688 24.4531C30.1406 24.7812 30.2188 25.1406 30.2188 25.4375C30.2188 26.3906 29.5312 27.2344 28.4531 27.2344ZM16.375 19.1562C17.125 19.1562 17.5625 18.7188 17.5781 17.9062L17.7969 9.67188C17.8125 8.875 17.1875 8.28125 16.3594 8.28125C15.5156 8.28125 14.9219 8.85938 14.9375 9.65625L15.1406 17.9062C15.1562 18.7031 15.5938 19.1562 16.375 19.1562ZM16.375 24.2344C17.2812 24.2344 18.0625 23.5156 18.0625 22.6094C18.0625 21.6875 17.2969 20.9844 16.375 20.9844C15.4531 20.9844 14.6875 21.7031 14.6875 22.6094C14.6875 23.5 15.4688 24.2344 16.375 24.2344Z" fill="#000000" fill-opacity="0.85"/> </g> </svg>